<svg width="161" height="161" viewBox="0 0 161 161" fill="none" xmlns="http://www.w3.org/2000/svg">
<circle cx="80.5" cy="80.5" r="80.5" fill="white"/>
<path d="M143.5 75.2499V80.9999C143.492 94.4775 139.128 107.592 131.058 118.386C122.989 129.181 111.646 137.078 98.721 140.899C85.7964 144.721 71.9829 144.262 59.3404 139.591C46.698 134.92 35.9041 126.288 28.5685 114.982C21.2329 103.675 17.7487 90.3003 18.6355 76.8518C19.5223 63.4034 24.7325 50.6019 33.4893 40.3566C42.246 30.1113 54.0799 22.971 67.2262 20.0008C80.3725 17.0306 94.1267 18.3895 106.438 23.8749" stroke="#0084BC" stroke-width="15" stroke-linecap="round" stroke-linejoin="round"/>
<path d="M143.5 31L81 93.5625L62.25 74.8125" stroke="#0A1236" stroke-width="15" stroke-linecap="round" stroke-linejoin="round"/>
</svg>
