<svg width="242" height="243" viewBox="0 0 242 243" fill="none" xmlns="http://www.w3.org/2000/svg">
<path fill-rule="evenodd" clip-rule="evenodd" d="M2.80055 128.641C25.4486 74.992 7.96602 7.84571 82.3225 8.09419C142.068 8.29393 170.589 22.403 212.506 45.8167C253.069 68.4754 254.216 133.302 197.198 191.732C140.179 250.163 97.4153 248.493 76.4524 235.138C55.4908 221.781 -13.3826 166.98 2.80055 128.641Z" fill="#F4F5F7"/>
<path fill-rule="evenodd" clip-rule="evenodd" d="M161.004 49.4021C193.268 29.4456 203.974 12.9212 210.507 24.2624C214.928 31.9396 169.966 86.719 161.004 92.5516C158.315 64.8221 161.004 49.4021 161.004 49.4021Z" fill="white"/>
<path fill-rule="evenodd" clip-rule="evenodd" d="M161.004 49.4021C193.268 29.4456 203.974 12.9212 210.507 24.2624C214.928 31.9396 169.966 86.719 161.004 92.5516C158.315 64.8221 161.004 49.4021 161.004 49.4021Z" stroke="#0A0F37" stroke-width="2"/>
<path fill-rule="evenodd" clip-rule="evenodd" d="M71.5707 133.115C74.4559 69.0837 74.4559 36.1268 76.3781 23.8853C78.3016 11.6452 84.0721 5.99538 105.228 5.05354C126.384 4.1117 144.654 0.34433 158.116 0.34433C171.58 0.34433 183.119 -1.53809 183.119 34.2444C183.119 70.0255 175.978 194.776 175.978 203.251C175.978 211.727 177.896 233.01 154.818 233.01C131.738 233.01 110.815 232.678 93.2996 235.2C77.0895 237.534 71.5707 229.162 71.5707 205.621V133.115Z" fill="#0A1236"/>
<path fill-rule="evenodd" clip-rule="evenodd" d="M71.0876 128.242C73.7773 66.5604 73.7773 34.8126 75.5687 23.0213C77.3614 11.2287 82.7394 5.78696 102.456 4.87916C122.173 3.97262 139.202 0.343943 151.751 0.343943C164.298 0.343943 175.053 -1.46914 175.053 32.9983C175.053 67.4682 167.882 203.528 167.882 211.694C167.882 219.856 167.882 227.112 146.373 227.112C124.863 227.112 106.896 226.033 91.6605 226.94C76.4233 227.846 71.0876 220.764 71.0876 198.087V128.242Z" fill="#019CDE"/>
<path fill-rule="evenodd" clip-rule="evenodd" d="M83.1872 31.2135L169.226 25.7718L161.161 197.209L76.9135 201.744L83.1872 31.2135Z" fill="white"/>
<path fill-rule="evenodd" clip-rule="evenodd" d="M125.391 213.442C125.391 217.514 122.128 220.817 118.103 220.817C114.078 220.817 110.816 217.514 110.816 213.442C110.816 209.368 114.078 206.064 118.103 206.064C122.128 206.064 125.391 209.368 125.391 213.442Z" fill="white"/>
<path fill-rule="evenodd" clip-rule="evenodd" d="M83.1239 31.5925L76.8121 200.659L161.57 196.163L169.684 26.1975L83.1239 31.5925Z" fill="white"/>
<path fill-rule="evenodd" clip-rule="evenodd" d="M35.1587 224.359C47.9947 214.374 70.58 189.196 63.2784 150.802C55.9756 112.405 50.4499 108.281 59.7153 94.0296C68.9808 79.7765 78.2713 58.2808 85.6757 73.1325C93.0787 87.9842 85.9777 114.753 74.4827 118.304C84.1943 127.556 121.499 160.767 96.445 193.058C80.3029 211.121 63.6594 207.319 59.3281 241.821C57.3579 240.541 35.1587 224.359 35.1587 224.359Z" fill="white"/>
<path d="M35.1587 224.359C47.9947 214.374 70.58 189.196 63.2784 150.802C55.9756 112.405 50.4499 108.281 59.7153 94.0296C68.9808 79.7765 78.2713 58.2808 85.6757 73.1325C93.0787 87.9842 85.9777 114.753 74.4827 118.304C84.1943 127.556 121.499 160.767 96.445 193.058C80.3029 211.121 65.2348 205.448 59.3281 241.821" stroke="#0A0F37" stroke-width="2"/>
<path fill-rule="evenodd" clip-rule="evenodd" d="M180.879 93.3443C172.357 102.762 150.631 117.868 140.593 124.64C129.925 131.839 134.905 139.953 158.993 131.671C172.779 126.931 182.352 121.061 185.273 114.54C190.142 103.669 180.879 93.3443 180.879 93.3443Z" fill="white"/>
<path fill-rule="evenodd" clip-rule="evenodd" d="M180.879 93.3443C172.357 102.762 150.631 117.868 140.593 124.64C129.925 131.839 134.905 139.953 158.993 131.671C172.779 126.931 182.352 121.061 185.273 114.54C190.142 103.669 180.879 93.3443 180.879 93.3443Z" stroke="#0A0F37" stroke-width="2"/>
<path fill-rule="evenodd" clip-rule="evenodd" d="M179.625 121.323C171.385 127.798 153.682 135.165 141.798 135.157C134.957 138.703 130.144 147.686 142.785 147.086C155.424 146.485 178.305 146.88 183.789 129.608C187.311 118.517 185.166 114.817 184.675 115.701C183.472 117.868 181.655 119.728 179.625 121.323Z" fill="white"/>
<path fill-rule="evenodd" clip-rule="evenodd" d="M179.625 121.323C171.385 127.798 153.682 135.165 141.798 135.157C134.957 138.703 130.144 147.686 142.785 147.086C155.424 146.485 178.305 146.88 183.789 129.608C187.311 118.517 185.166 114.817 184.675 115.701C183.472 117.868 181.655 119.728 179.625 121.323Z" stroke="#0A0F37" stroke-width="2"/>
<path fill-rule="evenodd" clip-rule="evenodd" d="M147.966 146.892C165.002 146.903 175.64 141.787 179.75 136.824C184.83 138.126 183.119 152.914 165.365 154.169C146.286 155.516 147.966 146.892 147.966 146.892Z" fill="white"/>
<path fill-rule="evenodd" clip-rule="evenodd" d="M147.966 146.892C165.002 146.903 175.64 141.787 179.75 136.824C184.83 138.126 183.119 152.914 165.365 154.169C146.286 155.516 147.966 146.892 147.966 146.892Z" stroke="#0A0F37" stroke-width="2"/>
<path fill-rule="evenodd" clip-rule="evenodd" d="M143.115 76.145C143.115 86.923 134.389 95.6603 123.626 95.6603C112.863 95.6603 104.138 86.923 104.138 76.145C104.138 65.367 112.863 56.6297 123.626 56.6297C134.389 56.6297 143.115 65.367 143.115 76.145Z" fill="#0084BC"/>
<path fill-rule="evenodd" clip-rule="evenodd" d="M137.865 76.145C137.865 86.923 134.39 95.6603 123.627 95.6603C112.864 95.6603 104.139 86.923 104.139 76.145C104.139 65.367 112.864 56.6297 123.627 56.6297C134.39 56.6297 137.865 65.367 137.865 76.145Z" fill="#019CDE"/>
<path d="M132.25 67.0656C132.963 66.2429 134.21 66.1598 135.026 66.8806C135.83 67.5914 135.912 68.8173 135.209 69.6286L123.967 82.6047C123.118 83.5843 121.65 83.7245 120.631 82.9232L112.709 76.6915C111.863 76.0266 111.712 74.8048 112.368 73.953C113.034 73.0896 114.276 72.9351 115.133 73.6092L121.942 78.9646L132.25 67.0656Z" fill="#0A0F37"/>
</svg>
