<svg width="250" height="258" viewBox="0 0 250 258" fill="none" xmlns="http://www.w3.org/2000/svg">
<path fill-rule="evenodd" clip-rule="evenodd" d="M2.51771 140.267C25.898 85.2316 7.85019 16.3509 84.6108 16.6058C146.288 16.8107 175.731 31.2842 219.003 55.3027C260.877 78.5467 262.062 145.048 203.2 204.987C144.338 264.927 100.191 263.214 78.5509 249.514C56.9115 235.813 -14.1887 179.596 2.51771 140.267Z" fill="#F4F5F7"/>
<path fill-rule="evenodd" clip-rule="evenodd" d="M197.004 224.188H60.1498C51.3078 224.188 44.1394 216.988 44.1394 208.106V123.244C44.1394 115.459 50.4222 109.148 58.1723 109.148H206.663V214.486C206.663 219.844 202.338 224.188 197.004 224.188Z" fill="white"/>
<path fill-rule="evenodd" clip-rule="evenodd" d="M197.004 224.188H60.1498C51.3078 224.188 44.1394 216.988 44.1394 208.106V123.244C44.1394 115.459 50.4222 109.148 58.1723 109.148H206.663V214.486C206.663 219.844 202.338 224.188 197.004 224.188Z" stroke="black" stroke-width="2"/>
<path fill-rule="evenodd" clip-rule="evenodd" d="M247.73 78.7033C235.013 91.7247 202.363 125.755 191.799 136.778L96.0835 107.556L172.982 5.91321C172.982 5.91321 217.462 61.7353 247.73 78.7033Z" fill="white"/>
<path fill-rule="evenodd" clip-rule="evenodd" d="M248.268 77.6725C218.521 60.9987 174.267 5.69623 173.823 5.14629L172.988 4.099L94.9678 107.216L97.1909 107.894L172.975 7.72713C175.848 11.2612 185.769 23.3456 198.221 36.7754C211.496 51.1019 230.388 69.8623 245.901 78.9978C233.089 92.1486 204.115 122.353 190.62 136.417L192.978 137.137C207.222 122.278 236.545 91.7412 248.464 79.5245L249.562 78.3973L248.268 77.6725Z" fill="black"/>
<path fill-rule="evenodd" clip-rule="evenodd" d="M222.76 85.8515C214.866 93.2766 188.244 122.615 178.976 132.863L107.976 111.187L167.897 32.7953C167.897 32.7953 167.905 32.8094 167.933 32.8307C167.949 32.8479 167.984 32.8832 168.026 32.9318C170.651 35.8664 213.377 83.3404 222.76 85.8515Z" fill="white"/>
<path fill-rule="evenodd" clip-rule="evenodd" d="M223.067 84.7267L222.933 84.6852C221.247 84.1707 218.432 82.165 214.922 79.2051C208.905 74.1142 200.866 66.1877 192.987 58.0661C192.945 58.0176 192.891 57.9761 192.85 57.9266C183.199 47.9723 173.824 37.7369 168.791 32.0809L168.126 30.6959L106.859 110.846L109.082 111.525L167.932 34.5485C173.744 40.991 209.166 80.0442 220.75 86.2622C211.571 95.2815 187.226 122.097 177.818 132.509L180.134 133.217C190.554 121.699 215.82 93.8976 223.462 86.7111L225.011 85.2473L223.067 84.7267Z" fill="black"/>
<path fill-rule="evenodd" clip-rule="evenodd" d="M225.839 80.9412C220.004 76.9299 194.852 52.1274 172.354 29.1587L169.024 22.3159L163.731 29.2446L102.393 109.482L107.977 111.187L167.897 32.7959C167.897 32.7959 167.905 32.8101 167.933 32.8303C167.95 32.8475 167.985 32.8829 168.026 32.9324C169.359 34.2769 180.694 45.8669 192.849 57.926C192.891 57.9755 192.945 58.017 192.986 58.0665C200.785 65.7847 208.899 73.686 214.921 79.2055C218.363 82.3524 221.123 84.7301 222.76 85.8512C214.867 93.2773 188.244 122.615 178.977 132.862L184.776 134.633C201.543 116.108 220.279 95.7701 226.268 90.1273L231.73 84.9939L225.839 80.9412Z" fill="#019CDE"/>
<path fill-rule="evenodd" clip-rule="evenodd" d="M224.631 58.2876C215.246 73.3905 191.253 112.743 183.492 125.487L90.8171 116.043L143.6 2.55859C143.6 2.55859 193.987 47.8238 224.631 58.2876Z" fill="white"/>
<path fill-rule="evenodd" clip-rule="evenodd" d="M224.944 57.185C194.827 46.9031 144.74 2.0958 144.239 1.651L143.293 0.802856L89.7358 115.933L91.8885 116.152L143.91 4.31574C147.15 7.16952 158.326 16.9116 172.049 27.4563C186.683 38.7087 207.226 53.1444 223.008 58.9328C213.558 74.1792 192.267 109.106 182.35 125.37L184.633 125.604C195.098 108.423 216.651 73.1057 225.445 58.9379L226.255 57.6308L224.944 57.185Z" fill="black"/>
<path fill-rule="evenodd" clip-rule="evenodd" d="M203.013 70.1175C197.074 78.8557 177.785 112.482 171.077 124.222L102.332 117.215L143.604 29.5712C143.604 29.5712 143.613 29.5843 143.641 29.5985C143.66 29.6116 143.699 29.6389 143.744 29.6783C146.656 32.0014 193.988 69.5332 203.013 70.1175Z" fill="white"/>
<path fill-rule="evenodd" clip-rule="evenodd" d="M203.099 68.9683L202.969 68.9552C201.337 68.7884 198.412 67.4024 194.686 65.228C188.297 61.4856 179.566 55.3969 170.947 49.0879C170.901 49.0485 170.842 49.0201 170.796 48.9807C160.237 41.2473 149.885 33.1864 144.298 28.704L143.45 27.495L101.251 117.105L103.403 117.325L143.939 31.2616C150.374 36.3515 189.564 67.1719 201.244 70.9092C194.404 81.4438 176.764 112.181 169.955 124.107L172.198 124.336C179.742 111.141 198.053 79.2684 203.803 70.8122L204.968 69.0896L203.099 68.9683Z" fill="black"/>
<path fill-rule="evenodd" clip-rule="evenodd" d="M204.981 64.7603C198.945 62.0258 171.625 42.9754 147.052 25.1754L141.691 22.8944L139.174 26.9546L96.9255 116.665L102.332 117.216L143.604 29.5708C143.604 29.5708 143.613 29.584 143.641 29.5981C143.661 29.6112 143.698 29.6385 143.744 29.678C145.198 30.7182 157.582 39.7031 170.796 48.9812C170.843 49.0206 170.901 49.0489 170.947 49.0883C179.422 55.0233 188.218 61.0726 194.687 65.2284C198.382 67.5959 201.32 69.3539 203.013 70.1171C197.074 78.8554 177.786 112.482 171.077 124.222L176.694 124.794C188.832 103.569 202.46 80.2039 206.964 73.5653L211.074 67.5231L204.981 64.7603Z" fill="#019CDE"/>
<path fill-rule="evenodd" clip-rule="evenodd" d="M200.634 51.899C192.813 67.9097 172.897 109.582 166.457 123.077H73.3074L114.418 4.57153C114.418 4.57153 169.094 44.5811 200.634 51.899Z" fill="white"/>
<path fill-rule="evenodd" clip-rule="evenodd" d="M200.835 50.7681C169.839 43.5766 115.505 3.99364 114.961 3.60141L113.934 2.85132L72.2207 123.076H74.3844L114.9 6.29041C118.413 8.80756 130.51 17.3841 145.222 26.5034C160.912 36.2354 182.801 48.5401 199.084 52.707C191.213 68.8683 173.542 105.853 165.31 123.076H167.604C176.289 104.884 194.183 67.4834 201.51 52.4644L202.184 51.0795L200.835 50.7681Z" fill="black"/>
<path fill-rule="evenodd" clip-rule="evenodd" d="M180.315 65.8897C175.283 75.2052 159.473 110.69 153.978 123.076H84.8804L117.136 31.5018C117.136 31.5018 117.145 31.514 117.176 31.5251C117.195 31.5372 117.235 31.5595 117.286 31.5938C120.415 33.6146 171.279 66.2253 180.315 65.8897Z" fill="white"/>
<path fill-rule="evenodd" clip-rule="evenodd" d="M180.285 64.7357H180.154C178.513 64.7357 175.465 63.65 171.54 61.8617C164.807 58.7795 155.508 53.5956 146.299 48.1822C146.25 48.1478 146.189 48.1246 146.138 48.0902C134.857 41.4526 123.746 34.4693 117.739 30.5672L116.773 29.4471L83.7942 123.076H85.9579L117.639 33.1531C124.552 37.5738 166.638 64.3203 178.634 66.8596C172.887 78.0564 158.426 110.494 152.851 123.076H155.105C161.285 109.155 176.3 75.517 181.171 66.5018L182.156 64.666L180.285 64.7357Z" fill="black"/>
<path fill-rule="evenodd" clip-rule="evenodd" d="M181.734 60.349C175.454 58.2362 147.934 42.7584 121.697 27.5089L114.982 23.4236L112.465 29.3436L79.446 123.077H84.8805L117.136 31.5019C117.136 31.5019 117.145 31.514 117.176 31.5252C117.195 31.5373 117.235 31.5595 117.286 31.5939C118.836 32.4835 132.06 40.1825 146.138 48.0898C146.19 48.1242 146.249 48.1474 146.299 48.1818C155.327 53.2383 164.687 58.3747 171.539 61.8613C175.454 63.8468 178.554 65.3014 180.315 65.8898C175.283 75.2053 159.473 110.69 153.978 123.077H159.624C169.567 100.682 180.778 76.0019 184.592 68.9255L188.074 62.4851L181.734 60.349Z" fill="#019CDE"/>
<path fill-rule="evenodd" clip-rule="evenodd" d="M44.1389 208.106V123.244C44.1389 115.459 50.4217 109.147 58.1718 109.147H102.393" fill="white"/>
<path d="M44.1389 208.106V123.244C44.1389 115.459 50.4217 109.147 58.1718 109.147H102.393" stroke="black" stroke-width="2"/>
<path fill-rule="evenodd" clip-rule="evenodd" d="M152.612 72.1639C152.612 78.1606 147.771 83.022 141.803 83.022C135.832 83.022 130.993 78.1606 130.993 72.1639C130.993 66.1672 135.832 61.3058 141.803 61.3058C147.771 61.3058 152.612 66.1672 152.612 72.1639Z" fill="#019CDE"/>
<path fill-rule="evenodd" clip-rule="evenodd" d="M145.921 110.838C145.921 123.853 135.419 134.402 122.464 134.402C109.509 134.402 99.0061 123.853 99.0061 110.838C99.0061 97.8249 109.509 87.2751 122.464 87.2751C135.419 87.2751 145.921 100.52 145.921 110.838Z" fill="#019CDE"/>
<path fill-rule="evenodd" clip-rule="evenodd" d="M145.921 110.838C145.921 123.853 135.419 134.402 122.464 134.402C109.509 134.402 99.0061 123.853 99.0061 110.838C99.0061 97.8249 109.509 87.2751 122.464 87.2751C135.419 87.2751 145.921 100.52 145.921 110.838Z" stroke="black" stroke-width="2"/>
<path fill-rule="evenodd" clip-rule="evenodd" d="M133.752 123.705L131.041 125.748L128.93 122.947C124.861 125.234 121.114 123.912 119.198 121.867L121.902 118.598C123.304 120.127 125.565 120.804 128.011 118.961C129.738 117.659 130.137 116.087 129.269 114.935C128.598 114.045 127.421 113.865 125.875 114.578L123.035 115.897C119.69 117.432 116.568 116.994 114.674 114.481C112.583 111.706 113.224 108.022 115.733 105.433L113.622 102.632L116.333 100.589L118.503 103.469C121.974 101.715 124.882 102.808 126.576 104.281L123.996 107.661C123.147 106.865 121.311 105.868 119.132 107.51C117.43 108.792 117.23 110.462 118.039 111.535C118.65 112.347 119.748 112.587 121.195 111.907L124.028 110.634C127.929 108.843 130.924 109.665 132.699 112.021C134.514 114.43 134.437 117.977 131.622 120.878L133.752 123.705Z" fill="black"/>
<path fill-rule="evenodd" clip-rule="evenodd" d="M182.659 233.791H61.5633C51.8557 233.791 43.9866 225.899 43.9866 216.164V123.45H181.403C187.433 123.45 192.322 128.353 192.322 134.401V224.1C192.322 229.452 187.996 233.791 182.659 233.791Z" fill="white"/>
<path fill-rule="evenodd" clip-rule="evenodd" d="M182.659 233.791H61.5633C51.8557 233.791 43.9866 225.899 43.9866 216.164V123.45H181.403C187.433 123.45 192.322 128.353 192.322 134.401V224.1C192.322 229.452 187.996 233.791 182.659 233.791Z" stroke="black" stroke-width="2"/>
<path fill-rule="evenodd" clip-rule="evenodd" d="M172.065 188.936H201.438C204.397 188.936 206.797 186.53 206.797 183.561V169.068C206.797 166.1 204.397 163.694 201.438 163.694H172.065C168.922 163.694 165.895 164.919 163.66 167.137C160.791 169.985 157.302 173.937 157.302 176.315C157.302 178.693 160.791 182.644 163.66 185.493C165.895 187.711 168.922 188.936 172.065 188.936Z" fill="white"/>
<path fill-rule="evenodd" clip-rule="evenodd" d="M172.065 188.936H201.438C204.397 188.936 206.797 186.53 206.797 183.561V169.068C206.797 166.1 204.397 163.694 201.438 163.694H172.065C168.922 163.694 165.895 164.919 163.66 167.137C160.791 169.985 157.302 173.937 157.302 176.315C157.302 178.693 160.791 182.644 163.66 185.493C165.895 187.711 168.922 188.936 172.065 188.936Z" stroke="black" stroke-width="2"/>
<path fill-rule="evenodd" clip-rule="evenodd" d="M183.764 172.706C183.764 176.33 180.834 179.268 177.22 179.268C173.606 179.268 170.676 176.33 170.676 172.706C170.676 169.081 173.606 166.143 177.22 166.143C180.834 166.143 183.764 169.081 183.764 172.706Z" fill="white"/>
<path fill-rule="evenodd" clip-rule="evenodd" d="M183.764 176.706C183.764 180.33 180.834 183.268 177.22 183.268C173.606 183.268 170.676 180.33 170.676 176.706C170.676 173.081 173.606 170.143 177.22 170.143C180.834 170.143 183.764 173.081 183.764 176.706Z" stroke="black" stroke-width="2"/>
</svg>
